#N canvas 0 23 562 420 12;
#X text 68 35 Simple comment;
#X text 67 65 Comment with symbols: $"!@#$%^&*()[] \; new line;
#X text 67 97 Lorem ipsum dolor sit amet \, consectetur adipiscing
elit \, sed do eiusmod tempor incididunt ut labore et dolore magna
aliqua. Ut enim ad minim veniam \, quis nostrud exercitation ullamco
laboris nisi ut aliquip ex ea commodo consequat.;
#X text 67 177 Get/Set Default length of a single processing sequence
\, in milliseconds. This determines to how long sequences the original
sound is chopped in the time-stretch algorithm. The larger this value
is \, the lesser sequences are used in processing. In principle a bigger
value sounds better when slowing down tempo \, but worse when increasing
tempo and vice versa. Increasing this value reduces computational burden
& vice versa. Giving *0* value for the sequence length sets automatic
parameter value according to tempo setting (recommended). Type: int.
Units: ms. Default value: 0 Range: 0...100., f 52;
