#N canvas 0 22 450 300 10;
#X obj 83 67 osc~;
#X msg 83 35 440;
#X msg 77 181 1;
#X msg 117 181 1;
#X msg 157 181 1;
#X obj 174 232 s \$0-out;
#X obj 77 232 send \$0-out1;
#X obj 83 109 s~ d;
#X obj 123 67 osc~;
#X msg 123 35 440;
#X msg 163 35 440;
#X obj 163 67 osc~ 415;
#X connect 0 0 7 0;
#X connect 1 0 0 0;
#X connect 2 0 5 0;
#X connect 2 0 6 0;
#X connect 3 0 5 0;
#X connect 3 0 6 0;
#X connect 4 0 5 0;
#X connect 4 0 6 0;
#X connect 8 0 7 0;
#X connect 9 0 8 0;
#X connect 10 0 11 0;
#X connect 11 0 7 0;
