#N canvas 209 255 600 500 10;
#X obj 22 47 tgl 15 0 empty empty empty 17 7 0 10 -260097 -1 -1 0 1;
#X obj 22 67 tgl 15 0 empty empty empty 17 7 0 10 -258113 -1 -10 0 1;
#X obj 22 26 tgl 15 0 empty empty empty 17 7 0 10 -262144 -1 -1 0 1;
#X floatatom 63 25 5 0 0 0 - - -;
#X floatatom 63 48 5 0 0 0 - r s;
#X floatatom 140 25 10 0 0 0 label - -;
#X floatatom 140 65 10 0 0 2 label - -;
#X floatatom 140 105 10 0 0 1 label - -;
#X floatatom 140 145 10 0 0 3 label - -;
#X obj 256 25 bng 15 250 50 0 empty empty empty 17 7 0 10 -262144 -1 -1;
#X obj 256 65 bng 30 250 50 0 s1 r1 bang 40 7 0 10 -191407 -257985 -1;
#X obj 22 100 tgl 32 0 s r label 40 20 0 10 -262144 -1 -1 0 1;
#X obj 36 225 hsl 128 15 1.27 127 1 1 empty empty label -2 -20 0 25
-228856 -260097 -4160 4200 1;
#X obj 22 270 vsl 15 128 1.27 127 1 1 empty empty label -2 -20 0 25
-228856 -260097 -4160 4200 1;
#X obj 205 225 nbx 5 14 -1e+37 1e+37 0 0 empty empty empty 0 -8 0 10 -262144 -1 -1 0 256;
#X obj 203 277 nbx 10 32 -1e+37 1e+37 0 0 sdf sdf Le 0 -20 0 25 -128992 -4034 -159808 0 256;
#X symbolatom 255 143 10 0 0 0 - - -;
#X obj 384 32 vu 15 120 empty empty -1 -8 0 10 -66577 -1 1 0;
#X connect 0 0 1 0;
#X connect 2 0 0 0;
#X connect 6 0 7 0;
#X connect 7 0 8 0;
