#N canvas 158 116 677 467 10;
#X msg 65 54 test message \, list;
#N canvas 624 248 450 300 subpatch 0;
#X msg 58 28 sub message \$1;
#X obj 58 66 s test-\$0;
#X obj 58 112 r \$0-test;
#N canvas 920 328 450 300 subpatch2 0;
#X restore 165 112 pd subpatch2;
#X obj 60 176 outlet;
#X obj 184 27 inlet;
#X obj 253 26 inlet~;
#X obj 132 183 outlet~;
#X obj 226 176 outlet;
#X connect 0 0 1 0;
#X restore 269 53 pd subpatch;
#X obj 65 89 pipe 10;
#X text 65 25 Sample comment;
#X floatatom 64 162 5 0 0 0 - #0-nbx-r #0-nbx-s;
#X floatatom 119 162 10 0 0 0 - - -;
#X obj 234 131 osc~ 440;
#X obj 234 162 +~ 1;
#X symbolatom 64 202 10 0 0 0 - - -;
#N canvas 0 22 450 278 (subpatch) 0;
#X array array1 10 float 3;
#A 0 0.442856 -0.814284 0.471431 0.457146 0.257144 0.257144 0.400002
0.428574 -0.071429 -0.44286;
#X coords 0 1 9 -1 200 140 1;
#X restore 390 55 graph;
#X obj 64 257 cnv 15 100 60 empty empty test 20 12 0 14 -4034 -258113
0;
#X obj 262 271 bng 15 250 50 0 empty empty bang 17 7 0 10 -262144 -1
-1;
#X text 263 226 GUI elements:;
#X obj 262 296 tgl 15 0 empty empty toggle 17 7 0 10 -262144 -1 -1
0 1;
#X obj 263 324 nbx 5 14 -1e+37 1e+37 0 0 empty empty empty 0 -8 0 10
-262144 -1 -1 0 256;
#X obj 334 272 vsl 15 128 0 127 0 0 empty empty empty 0 -9 0 10 -262144
-1 -1 0 1;
#X obj 265 247 hsl 128 15 0 127 0 0 empty empty empty -2 -8 0 10 -262144
-1 -1 0 1;
#X obj 364 271 vradio 15 1 0 8 empty empty empty 0 -8 0 10 -262144
-1 -1 0;
#X obj 364 403 hradio 15 1 0 8 empty empty empty 0 -8 0 10 -262144
-1 -1 0;
#X obj 501 296 vu 15 120 empty empty -1 -8 0 10 -66577 -1 1 0;
#X msg 194 26 \; another message;
#X obj 317 126 s;
#X obj 317 148 s \$0-test;
#X obj 317 105 send;
#X obj 317 173 s~;
#X obj 317 199 send~;
#X connect 0 0 2 0;
#X connect 2 0 5 0;
#X connect 6 0 7 0;
