#N canvas 295 285 450 300 10;
#N canvas 403 350 450 300 sub 1;
#X obj 52 27 inlet;
#X obj 117 27 inlet~;
#X obj 197 27 inlet;
#X obj 206 124 outlet;
#X obj 51 124 outlet~;
#N canvas 646 424 450 300 sub2 0;
#X obj 52 61 print;
#X msg 52 33 msg;
#X connect 1 0 0 0;
#X restore 179 70 pd sub2;
#X obj 262 55 f;
#X obj 262 83 +;
#X obj 262 111 int;
#X connect 6 0 7 0;
#X connect 6 0 7 1;
#X connect 7 0 8 0;
#X restore 49 62 pd sub;
